<?xml version="1.0" standalone="no"?>
<!DOCTYPE svg PUBLIC "-//W3C//DTD SVG 20010904//EN"
 "http://www.w3.org/TR/2001/REC-SVG-20010904/DTD/svg10.dtd">
<svg version="1.0" xmlns="http://www.w3.org/2000/svg"
 width="200.000000pt" height="200.000000pt" viewBox="0 0 200.000000 200.000000"
 preserveAspectRatio="xMidYMid meet">

<g transform="translate(0.000000,200.000000) scale(0.100000,-0.100000)"
fill="#000000" stroke="none">
<path d="M740 1670 c0 -121 -4 -220 -8 -220 -5 0 -98 36 -206 81 -109 44 -200
79 -202 76 -2 -2 48 -86 111 -187 64 -100 114 -184 113 -185 -2 -1 -97 -19
-213 -39 -116 -21 -213 -41 -217 -45 -4 -3 64 -39 150 -79 152 -70 160 -72
233 -72 l76 0 32 50 c84 129 254 220 411 220 72 0 168 -23 232 -56 61 -31 167
-129 194 -179 18 -34 20 -35 79 -35 55 0 73 7 214 79 125 64 149 79 130 84
-13 3 -107 18 -209 33 -102 15 -189 30 -193 34 -5 4 41 93 102 196 60 104 109
190 107 191 -1 2 -92 -37 -202 -86 l-199 -89 -6 92 c-4 50 -7 134 -8 186 -1
52 -4 112 -8 133 l-6 39 -118 -181 c-65 -100 -122 -181 -126 -181 -5 1 -64 82
-132 180 -69 99 -126 180 -128 180 -2 0 -3 -99 -3 -220z"/>
<path d="M657 993 c-4 -3 -7 -26 -7 -50 l0 -43 351 0 350 0 -3 48 -3 47 -341
3 c-187 1 -343 -1 -347 -5z"/>
<path d="M172 868 c-5 -7 -25 -69 -42 -137 -31 -119 -32 -125 -14 -138 27 -20
1742 -19 1769 1 18 13 17 17 -14 132 -18 65 -37 127 -42 137 -9 16 -59 17
-828 17 -643 0 -821 -3 -829 -12z"/>
</g>
</svg>
